<svg width="316" height="40" viewBox="0 0 316 40" fill="none" xmlns="http://www.w3.org/2000/svg">
<path d="M119.746 20.7559C119.746 21.6097 119.614 22.4636 119.415 23.4488H99.667C99.9984 24.7624 100.86 25.9447 102.119 26.9299C103.444 27.9151 104.836 28.3749 106.559 28.3749C107.818 28.3749 108.878 28.1122 109.806 27.521C110.8 26.9956 111.529 26.2731 112.059 25.5506H118.62C117.758 27.9808 116.168 29.8199 114.047 31.3306C111.794 32.7099 109.408 33.4981 106.625 33.4981C102.98 33.4981 99.7996 32.2501 97.2151 29.8199C94.6969 27.3897 93.3716 24.3683 93.3716 20.8215C93.3716 17.2091 94.6969 14.2534 97.2151 11.8232C99.7996 9.39297 102.98 8.14502 106.691 8.14502C110.336 8.14502 113.451 9.39297 115.969 11.8232C118.487 14.2534 119.746 17.2747 119.746 20.7559ZM99.7996 18.3913H113.385C113.053 16.8807 112.324 15.6327 111.065 14.6475C109.872 13.5966 108.414 13.1368 106.625 13.1368C104.836 13.1368 103.378 13.6623 102.119 14.6475C100.86 15.6327 100.065 16.9463 99.7996 18.3913Z" fill="#00A0E4"/>
<path d="M138.235 8.86728H146.187L135.319 19.9674L146.187 32.7753H138.699L131.343 24.1054L128.692 26.864V32.841H122.662V1.77368H128.692V18.7195L138.235 8.86728Z" fill="#00A0E4"/>
<path d="M166.929 16.2231H161.164C161.164 15.1065 160.766 14.3183 159.971 13.7272C159.176 13.1361 158.116 12.8077 156.79 12.8077C155.531 12.8077 154.537 13.0704 153.941 13.5302C153.278 13.9899 152.947 14.6467 152.947 15.3692C152.947 16.1574 153.344 16.7485 154.073 17.1426C154.802 17.6024 155.73 17.8651 156.79 18.0622C157.85 18.2592 159.043 18.4563 160.302 18.6533C161.628 18.8504 162.821 19.1788 163.815 19.5729C164.941 19.9669 165.803 20.7551 166.532 21.806C167.26 22.9226 167.658 24.3019 167.658 26.0096C167.658 28.5055 166.664 30.4103 164.676 31.6582C162.622 32.9062 160.037 33.4973 156.79 33.4973C153.609 33.4973 151.025 32.7091 149.169 31.2641C147.248 29.8192 146.32 27.783 146.32 25.3528H152.151C152.151 26.4037 152.615 27.1262 153.477 27.783C154.338 28.4398 155.531 28.7683 156.856 28.7683C158.314 28.7683 159.441 28.5055 160.302 28.0458C161.164 27.5203 161.628 26.8635 161.628 26.0096C161.628 25.1558 161.23 24.5646 160.501 24.1049C159.772 23.6451 158.844 23.3824 157.85 23.251C156.724 23.1853 155.531 22.9883 154.338 22.7256C153.079 22.4628 151.886 22.1344 150.826 21.806C149.699 21.4119 148.838 20.6894 148.175 19.6385C147.446 18.5219 147.115 17.1426 147.115 15.5006C147.115 13.1361 147.977 11.3627 149.699 10.049C151.489 8.80109 153.874 8.20996 156.989 8.20996C160.104 8.20996 162.622 8.93246 164.411 10.3118C166.068 11.6911 166.929 13.6615 166.929 16.2231Z" fill="#00A0E4"/>
<path d="M176.736 8.86678V12.4136H176.803C178.99 9.58927 181.64 8.20996 184.954 8.20996C188.598 8.20996 191.58 9.45791 193.834 11.8224C196.153 14.2527 197.213 17.274 197.213 20.8865C197.213 24.499 196.087 27.586 193.834 29.9505C191.514 32.315 188.598 33.563 184.954 33.563C181.64 33.563 178.923 32.1837 176.803 29.4251H176.736V39.9998H170.706V8.86678H176.736ZM178.724 15.6976C177.333 17.1426 176.67 18.8504 176.67 20.8208C176.67 22.7912 177.333 24.499 178.724 25.9439C180.116 27.3233 181.773 28.1114 183.827 28.1114C185.881 28.1114 187.604 27.3889 188.93 25.9439C190.321 24.5646 190.984 22.7912 190.984 20.8208C190.984 18.8504 190.321 17.1426 188.93 15.6976C187.538 14.2527 185.881 13.5302 183.827 13.5302C181.773 13.5302 180.05 14.2527 178.724 15.6976Z" fill="#00A0E4"/>
<path d="M229.088 32.7748V8.86678H234.39V12.2165H234.456C236.113 9.52359 238.3 8.20996 241.149 8.20996H241.679V14.187H240.288C238.83 14.187 237.637 14.6467 236.577 15.5663C235.516 16.5515 234.986 17.6681 234.854 19.1131V32.8405H229.088V32.7748Z" fill="#00A0E4"/>
<path d="M223.323 29.097C220.871 32.1184 217.69 33.8261 213.979 34.2859C210.268 34.7457 206.822 33.7604 203.84 31.3302C200.925 28.9 199.202 25.8787 198.937 22.2005C198.672 18.5223 199.798 15.1726 202.25 12.2169C204.636 9.39262 207.551 7.6849 211.064 7.15945C211.262 7.15945 211.461 7.09377 211.66 7.09377C212.256 7.02808 212.919 6.9624 213.516 6.9624L213.913 7.09377L213.714 7.22513H213.648C213.516 7.22513 213.449 7.22513 213.317 7.22513C212.522 7.35649 211.726 7.48785 210.997 7.75058C208.744 8.47308 206.889 9.72102 205.232 11.6258C203.045 14.1874 202.184 17.0117 202.449 20.2301C202.714 23.3828 204.105 26.01 206.624 28.0461C209.142 30.0823 212.058 30.9361 215.238 30.542C218.419 30.148 221.136 28.703 223.257 26.1414C225.377 23.5798 226.305 20.7555 226.04 17.6028C225.974 16.4862 225.709 15.501 225.377 14.5814C226.04 15.9608 226.438 17.5371 226.57 19.1792C226.968 22.7916 225.841 26.0757 223.323 29.097Z" fill="#F79520"/>
<path d="M213.383 8.7359C210.6 9.06431 208.28 10.3123 206.425 12.5454C204.702 14.5816 203.907 16.8804 203.973 19.3763C204.238 17.997 204.901 16.6834 205.961 15.5011C207.551 13.662 209.473 12.5454 211.925 12.217C214.311 11.8886 216.431 12.5454 218.353 14.0561C220.275 15.5668 221.269 17.5372 221.468 19.9017C221.666 22.2006 220.937 24.3024 219.347 26.2072C218.353 27.4551 217.16 28.309 215.835 28.8344C218.353 28.4403 220.474 27.1924 222.263 25.1563C224.118 22.9888 224.913 20.4929 224.781 17.7343C224.582 14.9756 223.323 12.7425 221.136 10.9691C218.684 9.12999 216.166 8.40749 213.383 8.7359Z" fill="#00A0E4"/>
<path d="M213.847 7.02774L213.582 7.1591L213.515 7.22478L213.118 7.42183L213.052 7.48751L210.335 8.9325L210.931 7.75024L210.997 7.68455L211.196 7.22478L210.997 7.02774L210.931 6.89638L210.003 5.71411L213.052 6.69933L213.383 6.8307L213.847 7.02774Z" fill="#FF8533"/>
<path d="M3.18086 32.9722H0V0.722656H3.18086V13.1364H3.3134C4.43995 11.4287 5.89785 10.0494 7.62081 8.99852C9.41005 7.94761 11.4644 7.35648 13.7837 7.35648C17.4947 7.35648 20.6093 8.67011 23.1938 11.2317C25.7782 13.7933 27.0373 16.8803 27.0373 20.5585C27.0373 24.2366 25.7782 27.3236 23.1938 29.8852C20.6093 32.4468 17.4947 33.7604 13.7837 33.7604C11.4644 33.7604 9.41005 33.235 7.62081 32.1184C5.83158 31.0018 4.43995 29.5568 3.3134 27.9148H3.18086V32.9722ZM6.22919 27.7834C8.28349 29.7539 10.6691 30.8048 13.5187 30.8048C16.3682 30.8048 18.8201 29.8195 20.8081 27.7834C22.7962 25.813 23.7902 23.3828 23.7902 20.4928C23.7902 17.6685 22.7962 15.2383 20.8081 13.2678C18.8201 11.2974 16.4345 10.3121 13.5187 10.3121C10.6691 10.3121 8.28349 11.2974 6.22919 13.2678C4.17488 15.2383 3.18086 17.6685 3.18086 20.4928C3.18086 23.3828 4.24115 25.813 6.22919 27.7834Z" fill="#2B313B"/>
<path d="M31.4112 0.656814C31.8751 0.197044 32.339 0 33.0016 0C33.5981 0 34.1282 0.197044 34.5258 0.656814C34.9234 1.11658 35.1885 1.57635 35.1885 2.23317C35.1885 2.8243 34.9897 3.34975 34.5258 3.74384C34.0619 4.13793 33.5981 4.40066 33.0016 4.40066C32.4052 4.40066 31.8751 4.20361 31.4112 3.74384C30.9473 3.34975 30.7485 2.8243 30.7485 2.23317C30.7485 1.57635 30.9473 1.11658 31.4112 0.656814ZM34.5258 8.07882V32.9721H31.3449V8.07882H34.5258Z" fill="#2B313B"/>
<path d="M55.2671 14.45C55.2671 13.2021 54.6707 12.2169 53.5441 11.4287C52.4176 10.6405 50.9597 10.2464 49.1042 10.2464C47.2487 10.2464 45.7245 10.6405 44.6642 11.4287C43.604 12.2169 43.0075 13.1364 43.0075 14.3187C43.0075 15.5666 43.4051 16.5518 44.2004 17.2743C44.9956 17.9968 46.0559 18.3909 47.2487 18.5223C48.4415 18.6537 49.7669 18.8507 51.2248 19.0477C52.6827 19.2448 54.008 19.5075 55.2008 19.8359C56.3937 20.1643 57.454 20.8211 58.2492 21.872C59.0444 22.9229 59.442 24.3679 59.442 26.1413C59.442 28.5059 58.5142 30.3449 56.6587 31.7243C54.8032 33.0379 52.2851 33.7604 49.1042 33.7604C46.0559 33.7604 43.604 32.9722 41.6822 31.4615C39.8267 29.9509 38.8989 27.9804 38.8989 25.5502H42.0798C42.0798 27.1266 42.7425 28.3745 44.0016 29.3597C45.2606 30.345 46.9836 30.8704 49.1042 30.8704C51.3573 30.8704 53.0803 30.4763 54.2731 29.6225C55.5322 28.7686 56.1286 27.5863 56.1286 26.0757C56.1286 24.9591 55.7973 24.1052 55.2008 23.5141C54.6044 22.8573 53.8092 22.4632 52.8152 22.2661C51.8212 22.0691 50.7609 21.872 49.6343 21.7407C48.4415 21.6093 47.315 21.478 46.1221 21.2809C44.9956 21.0839 43.9353 20.8211 42.9413 20.3614C41.9473 19.9673 41.2183 19.2448 40.5556 18.2596C39.9592 17.2743 39.6279 16.0264 39.6279 14.45C39.6279 12.2826 40.5556 10.5748 42.3449 9.26121C44.1341 8.01326 46.3872 7.35645 49.0379 7.35645C51.8212 7.35645 54.1406 8.01326 55.8635 9.32689C57.5865 10.6405 58.448 12.3482 58.448 14.45H55.2671Z" fill="#2B313B"/>
<path d="M86.7449 27.9145H86.6786C85.5521 29.5565 84.0942 30.9358 82.3049 32.0524C80.5157 33.169 78.4614 33.6945 76.142 33.6945C72.431 33.6945 69.3164 32.3808 66.732 29.8193C64.1475 27.2577 62.8884 24.1707 62.8884 20.4925C62.8884 16.88 64.1475 13.7273 66.732 11.1657C69.3164 8.60416 72.431 7.29053 76.142 7.29053C78.5277 7.29053 80.582 7.81598 82.3049 8.93256C84.0942 9.98347 85.4858 11.3628 86.6123 13.0705H86.6786V8.01302H89.9257V32.9063H86.6786V27.9145H86.7449ZM83.6966 13.2675C81.7085 11.2971 79.2566 10.3119 76.4071 10.3119C73.5576 10.3119 71.1057 11.2971 69.1176 13.2675C67.1296 15.238 66.1356 17.6682 66.1356 20.4925C66.1356 23.3825 67.1296 25.8127 69.1176 27.7831C71.1057 29.7536 73.4913 30.8045 76.4071 30.8045C79.2566 30.8045 81.6423 29.8193 83.6966 27.7831C85.6846 25.8127 86.7449 23.3825 86.7449 20.4925C86.7449 17.6682 85.6846 15.238 83.6966 13.2675Z" fill="#2B313B"/>
</svg>
